<svg width="494" height="107" viewBox="0 0 494 107" fill="none" xmlns="http://www.w3.org/2000/svg">
<rect width="493.95" height="106.989" rx="20" fill="#5ACEFF"/>
<path d="M123.32 67.44C116.28 67.44 112.52 64.04 111.64 58.4H116.84C117.52 61.84 119.32 63.2 123.16 63.2C126.32 63.2 128.2 61.8 128.2 59.4C128.2 57.04 125.24 56.52 121.56 55.8C117.16 54.88 112.4 53.48 112.4 48.2C112.4 43.36 116.52 39.92 122.2 39.92C128.48 39.92 132.48 43.12 133.12 48.88H127.96C127.56 45.6 125.68 44.16 122.16 44.16C119.2 44.16 117.4 45.56 117.4 47.8C117.4 50.36 120.72 50.76 124.4 51.48C128.72 52.28 133.24 53.68 133.24 59C133.24 64.08 129.52 67.44 123.32 67.44ZM136.242 67V40.44H155.482V44.76H141.242V51.16H150.722V55.52H141.242V62.68H155.922V67H136.242ZM158.625 67V40.44H177.865V44.76H163.625V51.16H173.105V55.52H163.625V62.68H178.305V67H158.625ZM186.754 67L196.754 40.44H202.554L212.194 67H206.834L204.314 59.88H194.394L191.754 67H186.754ZM195.794 55.68H202.914L199.434 45.84L195.794 55.68ZM214.016 67V40.44H219.056V62.68H231.056V67H214.016ZM234.367 67V40.44H239.407V62.68H251.407V67H234.367ZM266.913 67V44.76H258.873V40.44H280.073V44.76H271.953V67H266.913ZM282.375 67V40.44H292.495C299.975 40.44 302.975 43.44 302.975 47.84C302.975 51.6 300.615 54.44 296.575 55.2C300.695 56.32 302.575 59.44 303.335 65.72L303.495 67H298.175L298.135 66.04C297.495 60.56 295.455 57.28 290.295 57.28H287.375V67H282.375ZM287.375 53.4H291.855C296.375 53.4 297.895 50.68 297.895 48.44C297.895 45.84 296.295 44.48 292.175 44.48H287.375V53.4ZM304.645 67L314.645 40.44H320.445L330.085 67H324.725L322.205 59.88H312.285L309.645 67H304.645ZM313.685 55.68H320.805L317.325 45.84L313.685 55.68ZM331.95 67V40.44H336.99V67H331.95ZM341.086 67V40.44H346.126V62.68H358.126V67H341.086ZM369.492 67.44C362.452 67.44 358.692 64.04 357.812 58.4H363.012C363.692 61.84 365.492 63.2 369.332 63.2C372.492 63.2 374.372 61.8 374.372 59.4C374.372 57.04 371.412 56.52 367.732 55.8C363.332 54.88 358.572 53.48 358.572 48.2C358.572 43.36 362.692 39.92 368.372 39.92C374.652 39.92 378.652 43.12 379.292 48.88H374.132C373.732 45.6 371.852 44.16 368.332 44.16C365.372 44.16 363.572 45.56 363.572 47.8C363.572 50.36 366.892 50.76 370.572 51.48C374.892 52.28 379.412 53.68 379.412 59C379.412 64.08 375.692 67.44 369.492 67.44Z" fill="white"/>
</svg>
