<svg width="494" height="107" viewBox="0 0 494 107" fill="none" xmlns="http://www.w3.org/2000/svg">
<rect width="493.95" height="106.989" rx="20" fill="#5ACEFF"/>
<path d="M113.287 66L103.967 39.44H109.247L116.287 60.24L123.047 39.44H128.087L118.807 66H113.287ZM129.95 66V39.44H134.99V66H129.95ZM139.086 66V39.44H158.326V43.76H144.086V50.16H153.566V54.52H144.086V61.68H158.766V66H139.086ZM167.464 66L160.104 39.44H165.584L170.024 58.64L175.264 39.44H180.264L185.464 58.68L189.984 39.44H195.304L187.824 66H182.984L177.664 46.56L172.344 66H167.464ZM204.32 66V39.44H213.24C220.6 39.44 224.2 42.28 224.2 47.96C224.2 53.68 220.4 56.64 213.04 56.64H209.36V66H204.32ZM213 52.64C217.36 52.6 219.08 51.24 219.08 47.96C219.08 44.8 217.36 43.48 213.08 43.48H209.36V52.64H213ZM221.551 66L231.551 39.44H237.351L246.991 66H241.631L239.111 58.88H229.191L226.551 66H221.551ZM230.591 54.68H237.711L234.231 44.84L230.591 54.68ZM258.625 66.44C251.585 66.44 247.825 63.04 246.945 57.4H252.145C252.825 60.84 254.625 62.2 258.465 62.2C261.625 62.2 263.505 60.8 263.505 58.4C263.505 56.04 260.545 55.52 256.865 54.8C252.465 53.88 247.705 52.48 247.705 47.2C247.705 42.36 251.825 38.92 257.505 38.92C263.785 38.92 267.785 42.12 268.425 47.88H263.265C262.865 44.6 260.985 43.16 257.465 43.16C254.505 43.16 252.705 44.56 252.705 46.8C252.705 49.36 256.025 49.76 259.705 50.48C264.025 51.28 268.545 52.68 268.545 58C268.545 63.08 264.825 66.44 258.625 66.44ZM281.867 66.44C274.827 66.44 271.067 63.04 270.187 57.4H275.387C276.067 60.84 277.867 62.2 281.707 62.2C284.867 62.2 286.747 60.8 286.747 58.4C286.747 56.04 283.787 55.52 280.107 54.8C275.707 53.88 270.947 52.48 270.947 47.2C270.947 42.36 275.067 38.92 280.747 38.92C287.027 38.92 291.027 42.12 291.667 47.88H286.507C286.107 44.6 284.227 43.16 280.707 43.16C277.747 43.16 275.947 44.56 275.947 46.8C275.947 49.36 279.267 49.76 282.947 50.48C287.267 51.28 291.787 52.68 291.787 58C291.787 63.08 288.067 66.44 281.867 66.44ZM294.789 66V39.44H303.709C311.069 39.44 314.669 42.28 314.669 47.96C314.669 53.68 310.869 56.64 303.509 56.64H299.829V66H294.789ZM303.469 52.64C307.829 52.6 309.549 51.24 309.549 47.96C309.549 44.8 307.829 43.48 303.549 43.48H299.829V52.64H303.469ZM329.762 66.52C322.002 66.52 316.762 60.92 316.762 52.72C316.762 44.56 322.042 38.92 330.002 38.92C337.762 38.92 343.002 44.52 343.002 52.72C343.002 60.88 337.722 66.52 329.762 66.52ZM329.842 62.12C334.722 62.12 337.722 58.68 337.722 52.8V52.56C337.722 46.8 334.802 43.32 329.922 43.32C325.082 43.32 322.082 46.72 322.082 52.6V52.76C322.082 58.64 325.002 62.12 329.842 62.12ZM345.922 66V39.44H356.042C363.522 39.44 366.522 42.44 366.522 46.84C366.522 50.6 364.162 53.44 360.122 54.2C364.242 55.32 366.122 58.44 366.882 64.72L367.042 66H361.722L361.682 65.04C361.042 59.56 359.002 56.28 353.842 56.28H350.922V66H345.922ZM350.922 52.4H355.402C359.922 52.4 361.442 49.68 361.442 47.44C361.442 44.84 359.842 43.48 355.722 43.48H350.922V52.4ZM375.265 66V43.76H367.225V39.44H388.425V43.76H380.305V66H375.265Z" fill="white"/>
</svg>
