<svg width="1417" height="851" viewBox="0 0 1417 851" fill="none" xmlns="http://www.w3.org/2000/svg">
<g clip-path="url(#clip0_152_1586)">
<path d="M1361.56 6.92993H59.319C32.5285 6.92993 10.8105 28.6485 10.8105 55.4397V795.006C10.8105 821.797 32.5285 843.516 59.319 843.516H1361.56C1388.35 843.516 1410.07 821.797 1410.07 795.006V55.4397C1410.07 28.6485 1388.35 6.92993 1361.56 6.92993Z" fill="#769666" stroke="white" stroke-width="25"/>
<path d="M349.191 207.899V133.194H322.996V115.869H397.838V133.194H371.505V207.899H349.191ZM393.851 207.899V142.48H414.918V154.123C416.858 146.638 421.986 141.926 433.351 141.926H434.875V161.053H427.253C417.412 161.053 414.779 165.349 414.779 175.19V207.899H393.851ZM441.902 207.899V142.48H462.969V207.899H441.902ZM441.625 134.026V116.008H463.246V134.026H441.625ZM473.976 207.899V142.48H494.766V152.598C498.369 145.252 505.022 140.817 514.169 140.817C528.444 140.817 537.037 150.38 537.037 168.398V207.899H515.971V169.923C515.971 161.746 513.06 157.588 506.131 157.588C499.062 157.588 494.904 163.27 494.904 173.665V207.899H473.976ZM547.064 207.899V114.899H567.715V169.646L588.781 142.48H611.649L589.474 166.874L612.758 207.899H590.583L575.476 181.149L567.715 190.574V207.899H547.064ZM644.441 209.285C622.959 209.285 609.931 196.257 609.931 175.605C609.931 154.816 623.652 140.956 644.025 140.956C664.953 140.956 677.011 154.123 677.011 175.605V180.734H630.304C631.136 189.743 636.68 194.316 645.273 194.316C653.727 194.316 658.023 190.158 659.964 184.753L677.011 189.743C672.437 201.801 662.736 209.285 644.441 209.285ZM656.499 168.675C656.083 159.944 651.787 155.509 643.748 155.509C636.264 155.509 631.136 160.221 630.027 168.675H656.499ZM704.42 207.899C690.976 207.483 688.065 200.692 688.065 189.188V157.31H679.195V142.48H688.065V129.59L708.439 119.611V142.48H720.497V157.31H708.3V188.218C708.3 191.129 709.825 192.515 712.735 192.515H719.942V207.899H704.42ZM774.992 207.899V133.194H748.798V115.869H823.639V133.194H797.306V207.899H774.992ZM819.653 207.899V142.48H840.72V154.123C842.66 146.638 847.788 141.926 859.153 141.926H860.678V161.053H853.055C843.215 161.053 840.581 165.349 840.581 175.19V207.899H819.653ZM885.082 209.701C871.222 209.701 862.491 202.078 862.491 190.713C862.491 176.16 874.133 172.695 887.992 169.923C898.803 167.705 905.455 167.289 906.287 163.963V163.131C906.287 159.112 903.238 156.063 895.892 156.063C888.269 156.063 884.111 159.805 884.111 165.21V166.181H864.015C864.292 150.935 876.212 141.094 896.031 141.094C915.711 141.094 926.66 149.133 926.66 167.982V207.899H906.148V198.89C902.129 205.543 894.922 209.701 885.082 209.701ZM891.734 195.98C898.664 195.98 905.732 192.376 906.287 182.813V176.16C903.099 177.823 898.248 178.793 894.09 179.763C888.131 181.427 883.557 183.367 883.557 189.05C883.557 193.069 886.468 195.98 891.734 195.98ZM937.138 207.899V142.48H958.205V207.899H937.138ZM936.861 134.026V116.008H958.482V134.026H936.861ZM969.619 207.899V114.899H990.686V207.899H969.619ZM1029.14 209.978C1015.56 209.978 1004.74 204.711 997.954 197.227L1010.57 187.248C1015 192.099 1021.79 195.287 1028.58 195.287C1033.99 195.287 1036.9 193.069 1036.9 189.465C1036.9 185.585 1030.39 184.892 1021.65 182.813C1010.7 180.456 998.785 175.883 998.785 162.439C998.785 149.965 1010.43 140.678 1025.95 140.678C1038.7 140.678 1049.51 145.807 1056.16 153.707L1043.83 163.131C1039.53 158.003 1033.16 155.231 1026.92 155.231C1021.65 155.231 1018.6 157.449 1018.6 160.775C1018.6 164.517 1022.35 165.21 1032.46 167.289C1043.69 169.784 1056.86 173.804 1056.86 187.802C1056.86 200.692 1045.08 209.978 1029.14 209.978Z" fill="white"/>
<path d="M219.77 687.918C212.591 687.918 208.438 682.524 208.438 674.763C208.438 666.613 213.251 661.49 220.08 661.49C225.203 661.49 228.385 664.052 229.86 669.058L227.415 669.562C226.134 665.332 223.845 663.586 220.042 663.586C214.609 663.586 210.961 667.777 210.961 674.685V674.801C210.961 681.399 214.104 685.862 219.809 685.862C224.116 685.862 226.6 683.572 227.609 679.458L230.015 679.924C228.773 685.086 225.242 687.918 219.77 687.918ZM242.52 687.802C236.738 687.802 233.478 684.038 233.478 677.867C233.478 672.24 236.893 667.932 242.714 667.932C248.341 667.932 251.485 671.852 251.485 677.828C251.485 683.805 247.876 687.802 242.52 687.802ZM242.52 685.862C246.517 685.862 248.962 682.718 248.962 677.867C248.962 673.016 246.789 669.834 242.637 669.834C238.407 669.834 236.001 673.133 236.001 677.867C236.001 682.796 238.407 685.862 242.52 685.862ZM256.902 687.453V668.321H259.269V671.076L259.075 674.103H259.269C259.929 671.386 262.18 667.971 266.177 667.971C269.786 667.971 271.299 670.571 271.455 674.142H271.687C272.658 670.339 275.296 667.971 278.323 667.971C282.126 667.971 283.601 670.804 283.601 675.384V687.453H281.156V675.733C281.156 671.968 280.264 670.106 277.547 670.106C274.598 670.106 271.92 672.822 271.61 678.022V687.453H269.165V675.694C269.165 671.93 268.156 670.067 265.362 670.067C261.986 670.067 259.502 673.094 259.308 678.061V687.453H256.902ZM290.251 695.874V668.321H292.579V670.261L292.463 672.822H292.657C293.627 670.144 296.188 667.932 299.603 667.932C304.803 667.932 307.326 671.658 307.326 677.518C307.326 683.882 304.027 687.763 299.448 687.763C296.149 687.763 293.472 685.784 292.385 682.641H292.191L292.579 687.492V695.874H290.251ZM298.827 685.823C302.475 685.823 304.842 682.602 304.842 677.673C304.842 672.706 302.979 669.873 298.944 669.873C295.024 669.873 292.463 673.792 292.463 677.557V678.566C292.463 683.145 295.179 685.823 298.827 685.823ZM312.84 687.453V659.239H315.207V687.453H312.84ZM329.416 687.802C323.827 687.802 320.645 684.038 320.684 677.867C320.723 671.542 324.254 667.932 329.377 667.932C334.926 667.932 337.255 671.774 337.255 676.858C337.255 677.324 337.255 677.867 337.216 678.333H323.09C323.284 683.3 325.651 685.862 329.532 685.862C332.21 685.862 333.917 684.736 334.887 683.184L336.595 684.387C335.198 686.327 332.947 687.802 329.416 687.802ZM323.129 676.587H334.81V676.315C334.81 672.24 333.18 669.834 329.26 669.834C326.117 669.834 323.362 671.774 323.129 676.587ZM347.944 687.724C344.645 687.724 343.364 686.25 343.364 682.369V670.377H339.949V668.321H343.442L343.52 662.887L345.654 661.878V666.768L345.576 668.321H351.359V670.377H345.538L345.654 672.124V681.826C345.654 684.853 346.236 685.668 348.526 685.668C349.651 685.668 350.777 685.474 351.941 685.047V686.987C350.893 687.375 349.302 687.724 347.944 687.724ZM363.448 687.802C357.859 687.802 354.677 684.038 354.716 677.867C354.755 671.542 358.286 667.932 363.409 667.932C368.958 667.932 371.286 671.774 371.286 676.858C371.286 677.324 371.286 677.867 371.248 678.333H357.122C357.316 683.3 359.683 685.862 363.564 685.862C366.242 685.862 367.949 684.736 368.919 683.184L370.627 684.387C369.23 686.327 366.979 687.802 363.448 687.802ZM357.161 676.587H368.842V676.315C368.842 672.24 367.212 669.834 363.292 669.834C360.149 669.834 357.394 671.774 357.161 676.587ZM392.098 687.802C386.51 687.802 383.328 684.038 383.366 677.867C383.405 671.542 386.937 667.932 392.059 667.932C397.609 667.932 399.937 671.774 399.937 676.858C399.937 677.324 399.937 677.867 399.898 678.333H385.772C385.967 683.3 388.334 685.862 392.214 685.862C394.892 685.862 396.6 684.736 397.57 683.184L399.277 684.387C397.88 686.327 395.629 687.802 392.098 687.802ZM385.811 676.587H397.492V676.315C397.492 672.24 395.862 669.834 391.943 669.834C388.799 669.834 386.044 671.774 385.811 676.587ZM409.768 687.492L402.279 668.321H404.956L409.613 681.011L410.816 685.28H410.933L412.33 680.933L416.87 668.321H419.509L412.019 687.492H409.768ZM430.488 687.802C424.9 687.802 421.717 684.038 421.756 677.867C421.795 671.542 425.326 667.932 430.449 667.932C435.998 667.932 438.327 671.774 438.327 676.858C438.327 677.324 438.327 677.867 438.288 678.333H424.162C424.356 683.3 426.724 685.862 430.604 685.862C433.282 685.862 434.989 684.736 435.96 683.184L437.667 684.387C436.27 686.327 434.019 687.802 430.488 687.802ZM424.201 676.587H435.882V676.315C435.882 672.24 434.252 669.834 430.333 669.834C427.189 669.834 424.434 671.774 424.201 676.587ZM443.694 687.453V668.321H446.022V671.076L445.595 677.169H445.828C446.488 672.589 448.816 668.088 452.93 668.088H453.628V670.843C453.279 670.765 452.891 670.765 452.425 670.765C448.894 670.765 446.721 674.724 446.022 679.226V687.453H443.694ZM458.777 695.37C458.118 695.37 457.38 695.214 456.953 695.098V693.158C457.419 693.235 458.195 693.313 458.7 693.313C461.028 693.313 462.154 691.838 463.279 688.229L455.789 668.321H458.312L463.046 681.593L464.288 685.823H464.443L465.646 681.593L470.109 668.321H472.631L464.909 689.898C463.822 692.808 462.309 695.37 458.777 695.37ZM489.906 687.724C486.608 687.724 485.327 686.25 485.327 682.369V670.377H481.912V668.321H485.405L485.482 662.887L487.617 661.878V666.768L487.539 668.321H493.321V670.377H487.5L487.617 672.124V681.826C487.617 684.853 488.199 685.668 490.489 685.668C491.614 685.668 492.739 685.474 493.904 685.047V686.987C492.856 687.375 491.265 687.724 489.906 687.724ZM498.341 687.453V668.321H500.67V671.076L500.243 677.169H500.476C501.135 672.589 503.464 668.088 507.577 668.088H508.276V670.843C507.927 670.765 507.539 670.765 507.073 670.765C503.541 670.765 501.368 674.724 500.67 679.226V687.453H498.341ZM515.758 687.802C511.877 687.763 510.053 685.474 510.053 682.679C510.092 679.187 512.809 677.634 516.961 676.858C520.842 676.082 522.588 675.733 522.627 674.53V674.219C522.627 671.386 521.191 669.912 518.047 669.912C515.564 669.912 513.313 671.231 512.343 673.016L510.402 672.007C511.722 669.679 514.71 667.971 518.203 667.971C522.743 667.971 524.994 670.067 524.994 674.569V681.088C524.994 685.086 525.421 686.793 525.925 687.453H523.48C523.054 686.832 522.743 685.706 522.704 682.951C521.812 685.823 519.018 687.802 515.758 687.802ZM516.262 685.9C519.677 685.9 522.433 683.339 522.627 679.963V676.354C522.161 677.052 520.104 677.673 518.435 678.022C514.749 678.76 512.537 679.924 512.537 682.485C512.537 684.775 514.167 685.9 516.262 685.9ZM531.924 687.453V668.321H534.33V687.453H531.924ZM532.001 664.44C531.846 664.44 531.807 664.362 531.807 664.246V660.753C531.807 660.637 531.846 660.559 532.001 660.559H534.291C534.368 660.559 534.446 660.637 534.446 660.753V664.246C534.446 664.362 534.368 664.44 534.291 664.44H532.001ZM541.588 687.453V659.239H543.955V687.453H541.588ZM564.449 687.724C561.151 687.724 559.87 686.25 559.87 682.369V670.377H556.455V668.321H559.948L560.025 662.887L562.16 661.878V666.768L562.082 668.321H567.864V670.377H562.043L562.16 672.124V681.826C562.16 684.853 562.742 685.668 565.031 685.668C566.157 685.668 567.282 685.474 568.446 685.047V686.987C567.398 687.375 565.807 687.724 564.449 687.724ZM580.183 687.802C574.4 687.802 571.141 684.038 571.141 677.867C571.141 672.24 574.556 667.932 580.377 667.932C586.004 667.932 589.147 671.852 589.147 677.828C589.147 683.805 585.538 687.802 580.183 687.802ZM580.183 685.862C584.18 685.862 586.624 682.718 586.624 677.867C586.624 673.016 584.451 669.834 580.299 669.834C576.069 669.834 573.663 673.133 573.663 677.867C573.663 682.796 576.069 685.862 580.183 685.862ZM605.241 687.492L599.691 668.321H602.252L605.512 680.351L606.521 685.163H606.638L607.918 680.312L611.838 668.321H614.283L617.892 680.312L619.211 685.202H619.289L620.375 680.312L623.751 668.321H626.235L620.414 687.492H617.892L614.011 674.763L613.002 670.649H612.924L611.877 674.763L607.685 687.492H605.241ZM630.72 687.453V668.321H633.126V687.453H630.72ZM630.798 664.44C630.642 664.44 630.604 664.362 630.604 664.246V660.753C630.604 660.637 630.642 660.559 630.798 660.559H633.087C633.165 660.559 633.242 660.637 633.242 660.753V664.246C633.242 664.362 633.165 664.44 633.087 664.44H630.798ZM640.344 687.453V668.321H642.711V671.076L642.517 674.103H642.711C643.371 671.348 645.893 667.971 649.891 667.971C653.888 667.971 655.673 670.804 655.673 675.345V687.453H653.228V675.694C653.228 671.93 651.908 670.067 649.037 670.067C645.699 670.067 642.944 673.094 642.75 678.061V687.453H640.344ZM675.908 687.724C672.609 687.724 671.328 686.25 671.328 682.369V670.377H667.913V668.321H671.406L671.484 662.887L673.618 661.878V666.768L673.54 668.321H679.323V670.377H673.502L673.618 672.124V681.826C673.618 684.853 674.2 685.668 676.49 685.668C677.615 685.668 678.741 685.474 679.905 685.047V686.987C678.857 687.375 677.266 687.724 675.908 687.724ZM684.384 687.453V659.239H686.713V670.959L686.519 673.909H686.751C687.333 671.153 689.895 667.971 693.892 667.971C697.889 667.971 699.674 670.61 699.674 675.151V687.453H697.229V675.694C697.229 671.93 695.949 670.067 693.038 670.067C689.701 670.067 686.907 673.21 686.713 678.216V687.453H684.384ZM713.733 687.802C708.145 687.802 704.963 684.038 705.002 677.867C705.04 671.542 708.572 667.932 713.694 667.932C719.244 667.932 721.572 671.774 721.572 676.858C721.572 677.324 721.572 677.867 721.533 678.333H707.408C707.602 683.3 709.969 685.862 713.85 685.862C716.527 685.862 718.235 684.736 719.205 683.184L720.912 684.387C719.515 686.327 717.265 687.802 713.733 687.802ZM707.446 676.587H719.127V676.315C719.127 672.24 717.497 669.834 713.578 669.834C710.435 669.834 707.679 671.774 707.446 676.587ZM741.297 696.611C736.058 696.611 733.264 694.749 733.264 691.799C733.264 689.626 735.243 687.957 738.192 687.492C735.864 687.065 734.894 685.668 734.894 684.154C734.894 682.679 736.097 681.36 738.309 680.855C735.825 679.769 734.428 677.479 734.428 674.801C734.428 671.037 737.183 667.932 742.228 667.932C744.984 667.932 747.079 668.98 748.36 670.61C749.02 668.98 750.455 668.088 752.163 668.088C752.357 668.088 752.629 668.088 752.784 668.165V670.571C752.629 670.494 752.318 670.455 751.969 670.455C750.999 670.455 749.757 670.727 748.981 671.697C749.485 672.589 749.718 673.637 749.718 674.685C749.718 678.76 746.652 681.554 741.918 681.554C741.103 681.554 740.404 681.476 739.706 681.321C737.882 681.67 736.951 682.641 736.951 683.494C736.951 684.542 737.339 685.551 740.443 685.939L744.828 686.327C748.593 686.715 751.27 687.492 751.27 690.674C751.27 694.05 747.623 696.611 741.646 696.611H741.297ZM741.957 694.826C746.963 694.826 749.02 692.925 749.02 690.829C749.02 688.889 746.885 688.617 744.246 688.345C742.927 688.19 740.87 687.996 739.473 687.918C736.951 688.345 735.554 689.704 735.554 691.256C735.554 693.507 737.766 694.826 741.569 694.826H741.957ZM742.073 679.808C745.605 679.808 747.428 677.673 747.428 674.724C747.428 671.93 745.721 669.679 742.112 669.679C738.386 669.679 736.834 672.085 736.834 674.763C736.834 677.596 738.425 679.808 742.073 679.808ZM756.764 687.453V668.321H759.093V671.076L758.666 677.169H758.899C759.558 672.589 761.887 668.088 766 668.088H766.699V670.843C766.35 670.765 765.961 670.765 765.496 670.765C761.964 670.765 759.791 674.724 759.093 679.226V687.453H756.764ZM774.177 687.802C770.297 687.763 768.473 685.474 768.473 682.679C768.512 679.187 771.228 677.634 775.38 676.858C779.261 676.082 781.007 675.733 781.046 674.53V674.219C781.046 671.386 779.61 669.912 776.467 669.912C773.983 669.912 771.733 671.231 770.762 673.016L768.822 672.007C770.142 669.679 773.13 667.971 776.622 667.971C781.163 667.971 783.413 670.067 783.413 674.569V681.088C783.413 685.086 783.84 686.793 784.345 687.453H781.9C781.473 686.832 781.163 685.706 781.124 682.951C780.231 685.823 777.437 687.802 774.177 687.802ZM774.682 685.9C778.097 685.9 780.852 683.339 781.046 679.963V676.354C780.58 677.052 778.524 677.673 776.855 678.022C773.168 678.76 770.956 679.924 770.956 682.485C770.956 684.775 772.586 685.9 774.682 685.9ZM790.304 687.453V668.321H792.672V671.076L792.478 674.103H792.672C793.331 671.348 795.854 667.971 799.851 667.971C803.848 667.971 805.633 670.804 805.633 675.345V687.453H803.188V675.694C803.188 671.93 801.869 670.067 798.997 670.067C795.66 670.067 792.904 673.094 792.71 678.061V687.453H790.304ZM818.8 687.763C814.104 687.763 810.922 683.882 810.922 677.751C810.922 671.619 813.949 667.932 818.955 667.932C822.486 667.932 824.776 670.106 825.707 672.706H825.862L825.707 669.679V659.239H828.074V687.453H825.824V683.688L825.862 682.175C824.931 685.512 822.176 687.763 818.8 687.763ZM819.343 685.823C822.952 685.823 825.785 682.679 825.785 678.333V677.324C825.785 673.327 823.573 669.873 819.498 669.873C815.501 669.873 813.444 672.822 813.444 677.634C813.444 682.718 815.617 685.823 819.343 685.823ZM848.453 687.724C845.155 687.724 843.874 686.25 843.874 682.369V670.377H840.459V668.321H843.952L844.029 662.887L846.164 661.878V666.768L846.086 668.321H851.868V670.377H846.047L846.164 672.124V681.826C846.164 684.853 846.746 685.668 849.036 685.668C850.161 685.668 851.286 685.474 852.451 685.047V686.987C851.403 687.375 849.812 687.724 848.453 687.724ZM856.886 687.453V668.321H859.214V671.076L858.787 677.169H859.02C859.68 672.589 862.008 668.088 866.122 668.088H866.82V670.843C866.471 670.765 866.083 670.765 865.617 670.765C862.086 670.765 859.913 674.724 859.214 679.226V687.453H856.886ZM870.457 687.453V668.321H872.863V687.453H870.457ZM870.535 664.44C870.379 664.44 870.34 664.362 870.34 664.246V660.753C870.34 660.637 870.379 660.559 870.535 660.559H872.824C872.902 660.559 872.979 660.637 872.979 660.753V664.246C872.979 664.362 872.902 664.44 872.824 664.44H870.535ZM880.081 687.453V668.321H882.448V671.076L882.254 674.103H882.448C883.108 671.348 885.63 667.971 889.627 667.971C893.624 667.971 895.41 670.804 895.41 675.345V687.453H892.965V675.694C892.965 671.93 891.645 670.067 888.774 670.067C885.436 670.067 882.681 673.094 882.487 678.061V687.453H880.081ZM902.101 687.453V659.239H904.429V677.324L904.313 680.312L914.17 668.321H917.197L910.677 675.966L917.818 687.453H915.062L909.047 677.44L904.313 682.835L904.429 684.426V687.453H902.101ZM929.099 687.802C923.511 687.802 920.329 684.038 920.368 677.867C920.407 671.542 923.938 667.932 929.061 667.932C934.61 667.932 936.938 671.774 936.938 676.858C936.938 677.324 936.938 677.867 936.9 678.333H922.774C922.968 683.3 925.335 685.862 929.216 685.862C931.893 685.862 933.601 684.736 934.571 683.184L936.279 684.387C934.882 686.327 932.631 687.802 929.099 687.802ZM922.813 676.587H934.494V676.315C934.494 672.24 932.864 669.834 928.944 669.834C925.801 669.834 923.046 671.774 922.813 676.587ZM947.627 687.724C944.328 687.724 943.048 686.25 943.048 682.369V670.377H939.633V668.321H943.125L943.203 662.887L945.337 661.878V666.768L945.26 668.321H951.042V670.377H945.221L945.337 672.124V681.826C945.337 684.853 945.919 685.668 948.209 685.668C949.334 685.668 950.46 685.474 951.624 685.047V686.987C950.576 687.375 948.985 687.724 947.627 687.724ZM957.611 679.148L956.758 661.607V659.162H959.629V661.607L958.814 679.148H957.611ZM956.952 687.453C956.874 687.453 956.796 687.375 956.796 687.259V683.067C956.796 682.951 956.874 682.873 956.99 682.873H959.396C959.513 682.873 959.629 682.951 959.629 683.067V687.259C959.629 687.375 959.513 687.453 959.396 687.453H956.952Z" fill="white"/>
<path d="M205.953 565.485C253.87 565.485 292.714 526.64 292.714 478.722C292.714 430.804 253.87 391.959 205.953 391.959C158.036 391.959 119.192 430.804 119.192 478.722C119.192 526.64 158.036 565.485 205.953 565.485Z" fill="#D9D9D9" fill-opacity="0.25" stroke="#72726F" stroke-width="20"/>
<path d="M451.544 565.485C499.461 565.485 538.305 526.64 538.305 478.722C538.305 430.804 499.461 391.959 451.544 391.959C403.627 391.959 364.783 430.804 364.783 478.722C364.783 526.64 403.627 565.485 451.544 565.485Z" fill="#D9D9D9" fill-opacity="0.25" stroke="#72726F" stroke-width="20"/>
<path d="M697.135 565.485C745.051 565.485 783.896 526.64 783.896 478.722C783.896 430.804 745.051 391.959 697.135 391.959C649.218 391.959 610.374 430.804 610.374 478.722C610.374 526.64 649.218 565.485 697.135 565.485Z" fill="#D9D9D9" fill-opacity="0.25" stroke="#72726F" stroke-width="20"/>
<path d="M942.727 565.485C990.643 565.485 1029.49 526.64 1029.49 478.722C1029.49 430.804 990.643 391.959 942.727 391.959C894.81 391.959 855.966 430.804 855.966 478.722C855.966 526.64 894.81 565.485 942.727 565.485Z" fill="#D9D9D9" fill-opacity="0.25" stroke="#72726F" stroke-width="20"/>
<path d="M1265.38 565.485C1313.29 565.485 1352.14 526.64 1352.14 478.722C1352.14 430.804 1313.29 391.959 1265.38 391.959C1217.46 391.959 1178.62 430.804 1178.62 478.722C1178.62 526.64 1217.46 565.485 1265.38 565.485Z" fill="#D9D9D9" fill-opacity="0.25" stroke="#FFD059" stroke-width="20"/>
<path d="M1265.65 403.601L1282.58 455.7H1337.36L1293.04 487.899L1309.97 539.997L1265.65 507.799L1221.34 539.997L1238.27 487.899L1193.95 455.7H1248.73L1265.65 403.601Z" fill="#FFE40A" fill-opacity="0.8"/>
<path d="M1122.56 850.501V283.847" stroke="white" stroke-width="20"/>
<path d="M1413.12 284.96H0" stroke="white" stroke-width="20"/>
</g>
<defs>
<clipPath id="clip0_152_1586">
<rect width="1417" height="851" fill="white"/>
</clipPath>
</defs>
</svg>
