<svg width="1728" height="1071" viewBox="0 0 1728 1071" fill="none" xmlns="http://www.w3.org/2000/svg">
<rect x="-14" width="1809" height="1071" rx="20" fill="#F7F7F7"/>
<path d="M694.309 510.897C688.995 497.636 684.009 482.088 679.5 463.898C679.5 463.898 648.5 431.897 636 426.397C623.499 420.897 610.5 426.397 610.5 426.397C610.5 426.397 591 433.397 581.5 431.897C572 430.397 564.5 414.897 564.5 414.897L545.5 406.897L522.5 376.397C522.5 376.397 504.5 349.397 498 341.897C491.5 334.397 470.5 349.397 470.5 349.397L445 362.897L433.5 406.897L415.5 426.397L346 362.897L274 301.897" stroke="#FF0000" stroke-width="5"/>
<path d="M694.308 510.897L743.999 504.897L798 501.398L859 524.398L923.5 524.398L984.5 517.398L1016 583.898L1033.5 580.398L1058 634.897L1074 628.397L1113 656.897L1151 647.897L1170.5 667.397L1188.5 701.397L1199 730.397L1238 692.397L1238 757.897L1287 788.397L1324 822.897L1351.5 822.897L1376.5 814.897L1397 788.397L1397 730.397L1423.5 730.397" stroke="#FF0000" stroke-width="5"/>
<path d="M258.5 250L268.491 280.749L300.822 280.749L274.666 299.753L284.656 330.501L258.5 311.497L232.344 330.501L242.334 299.753L216.178 280.749L248.509 280.749L258.5 250Z" fill="#FFE40A"/>
<path d="M578 362L582.041 374.438H595.119L584.539 382.125L588.58 394.562L578 386.875L567.42 394.562L571.461 382.125L560.881 374.438H573.959L578 362Z" fill="#FFE40A"/>
<path d="M1441.5 679L1451.49 709.749L1483.82 709.749L1457.67 728.753L1467.66 759.501L1441.5 740.497L1415.34 759.501L1425.33 728.753L1399.18 709.749L1431.51 709.749L1441.5 679Z" fill="#FFE40A"/>
<path d="M1314 750L1318.04 762.438H1331.12L1320.54 770.125L1324.58 782.562L1314 774.875L1303.42 782.562L1307.46 770.125L1296.88 762.438H1309.96L1314 750Z" fill="#FFE40A"/>
<path d="M1206 661L1210.04 673.438H1223.12L1212.54 681.125L1216.58 693.562L1206 685.875L1195.42 693.562L1199.46 681.125L1188.88 673.438H1201.96L1206 661Z" fill="#FFE40A"/>
<path d="M717 460L721.041 472.438H734.119L723.539 480.125L727.58 492.562L717 484.875L706.42 492.562L710.461 480.125L699.881 472.438H712.959L717 460Z" fill="#FFE40A"/>
<rect x="278.999" y="137" width="360" height="67" rx="20" fill="#769666"/>
<path d="M333.839 184V172L324.279 157.44H329.999L336.519 167.64L343.039 157.44H348.519L338.879 172.04V184H333.839ZM359.917 184.52C352.157 184.52 346.917 178.92 346.917 170.72C346.917 162.56 352.197 156.92 360.157 156.92C367.917 156.92 373.157 162.52 373.157 170.72C373.157 178.88 367.877 184.52 359.917 184.52ZM359.997 180.12C364.877 180.12 367.877 176.68 367.877 170.8V170.56C367.877 164.8 364.957 161.32 360.077 161.32C355.237 161.32 352.237 164.72 352.237 170.6V170.76C352.237 176.64 355.157 180.12 359.997 180.12ZM387.116 184.52C379.876 184.52 376.076 180.52 376.076 173.28V157.44H381.116V173.24C381.116 177.88 383.076 180.16 387.116 180.16C391.236 180.16 392.996 178 392.996 173.32V157.44H397.836V173.32C397.836 180.84 393.676 184.52 387.116 184.52ZM407.058 184L417.058 157.44H422.858L432.498 184H427.138L424.618 176.88H414.698L412.058 184H407.058ZM416.098 172.68H423.218L419.738 162.84L416.098 172.68ZM434.319 184V157.44H444.439C451.919 157.44 454.919 160.44 454.919 164.84C454.919 168.6 452.559 171.44 448.519 172.2C452.639 173.32 454.519 176.44 455.279 182.72L455.439 184H450.119L450.079 183.04C449.439 177.56 447.399 174.28 442.239 174.28H439.319V184H434.319ZM439.319 170.4H443.799C448.319 170.4 449.839 167.68 449.839 165.44C449.839 162.84 448.239 161.48 444.119 161.48H439.319V170.4ZM458.89 184V157.44H478.13V161.76H463.89V168.16H473.37V172.52H463.89V179.68H478.57V184H458.89ZM489.554 184V157.44H494.594V168.36H506.594V157.44H511.634V184H506.594V172.64H494.594V184H489.554ZM515.687 184V157.44H534.927V161.76H520.687V168.16H530.167V172.52H520.687V179.68H535.367V184H515.687ZM538.069 184V157.44H548.189C555.669 157.44 558.669 160.44 558.669 164.84C558.669 168.6 556.309 171.44 552.269 172.2C556.389 173.32 558.269 176.44 559.029 182.72L559.189 184H553.869L553.829 183.04C553.189 177.56 551.149 174.28 545.989 174.28H543.069V184H538.069ZM543.069 170.4H547.549C552.069 170.4 553.589 167.68 553.589 165.44C553.589 162.84 551.989 161.48 547.869 161.48H543.069V170.4ZM562.64 184V157.44H581.88V161.76H567.64V168.16H577.12V172.52H567.64V179.68H582.32V184H562.64Z" fill="white"/>
<path d="M278.703 216.607C277.282 217.347 275.612 216.199 275.792 214.608L279.879 178.6C280.049 177.101 281.755 176.323 282.999 177.177L311.058 196.456C312.302 197.31 312.188 199.182 310.849 199.878L278.703 216.607Z" fill="#769666"/>
</svg>
